<svg width="24" height="24" viewBox="0 0 24 24" fill="none" xmlns="http://www.w3.org/2000/svg">
<mask id="mask0_1481_1274" style="mask-type:alpha" maskUnits="userSpaceOnUse" x="0" y="1" width="24" height="22">
<path fill-rule="evenodd" clip-rule="evenodd" d="M0.25 7.83495C0.25 4.26198 3.17257 1.38745 6.75 1.38745C8.63471 1.38745 10.2293 2.39588 11.2598 3.25005C11.536 3.47893 11.784 3.70704 12 3.91941C12.216 3.70704 12.464 3.47893 12.7402 3.25005C13.7707 2.39588 15.3653 1.38745 17.25 1.38745C20.8274 1.38745 23.75 4.26198 23.75 7.83495C23.75 9.17474 23.4802 11.3519 21.9931 13.9318C20.5101 16.5046 17.8558 19.4098 13.1922 22.2768L13.1873 22.2798C12.8296 22.4975 12.4188 22.6127 12 22.6127C11.5812 22.6127 11.1704 22.4975 10.8127 22.2798L10.8078 22.2768C6.14418 19.4098 3.48987 16.5046 2.00687 13.9318C0.519753 11.3519 0.25 9.17474 0.25 7.83495ZM13.0014 6.53564C12.7654 6.85145 12.3943 7.03745 12 7.03745C11.6062 7.03745 11.2355 6.85188 10.9995 6.53674C10.9992 6.53637 10.9989 6.53601 10.9986 6.53564L10.999 6.53611L10.9995 6.53674L10.9995 6.53685L11 6.53749C11.0001 6.53755 10.9996 6.53688 10.9985 6.53551L10.9858 6.51903C10.9731 6.50266 10.952 6.47585 10.923 6.44009C10.8648 6.36846 10.7753 6.26162 10.6581 6.13133C10.4222 5.86913 10.0816 5.52056 9.66447 5.17485C8.79478 4.45402 7.76434 3.88745 6.75 3.88745C4.52933 3.88745 2.75 5.66652 2.75 7.83495C2.75 8.81251 2.93962 10.544 4.1728 12.6833C5.39901 14.8106 7.69543 17.4074 12 20.0748C16.3046 17.4074 18.601 14.8106 19.8272 12.6833C21.0604 10.544 21.25 8.81251 21.25 7.83495C21.25 5.66652 19.4707 3.88745 17.25 3.88745C16.2357 3.88745 15.2052 4.45402 14.3355 5.17485C13.9184 5.52056 13.5778 5.86913 13.3419 6.13133C13.2247 6.26162 13.1352 6.36846 13.077 6.44009C13.048 6.47585 13.0269 6.50266 13.0142 6.51903L13.0015 6.53551C13.0008 6.53642 13.0003 6.53702 13.0001 6.53731L13.0005 6.53685L13.001 6.53611L13.0014 6.53564Z" fill="#0019FF"/>
</mask>
<g mask="url(#mask0_1481_1274)">
<rect width="24" height="24" fill="#1F2024"/>
</g>
</svg>
