<svg width="21" height="20" viewBox="0 0 21 20" fill="none" xmlns="http://www.w3.org/2000/svg">
<mask id="mask0_1481_464" style="mask-type:alpha" maskUnits="userSpaceOnUse" x="2" y="0" width="17" height="20">
<path d="M15.6248 4.99988C15.6248 7.76124 13.3864 9.99977 10.625 9.99977C7.86373 9.99977 5.62524 7.76124 5.62524 4.99988C5.62524 2.23852 7.86373 0 10.625 0C13.3864 0 15.6248 2.23852 15.6248 4.99988Z" fill="#0019FF"/>
<path d="M2.29199 16.6667C2.29199 13.9054 4.53048 11.6669 7.2918 11.6669H13.9582C16.7195 11.6669 18.958 13.9054 18.958 16.6667V17.5001C18.958 18.8807 17.8388 20 16.4581 20H4.79189C3.41124 20 2.29199 18.8807 2.29199 17.5001V16.6667Z" fill="#0019FF"/>
</mask>
<g mask="url(#mask0_1481_464)">
<rect x="0.625488" y="-0.000976562" width="19.9992" height="19.9995" fill="#D4D6DD"/>
</g>
</svg>
