<svg width="21" height="20" viewBox="0 0 21 20" fill="none" xmlns="http://www.w3.org/2000/svg">
<mask id="mask0_1481_459" style="mask-type:alpha" maskUnits="userSpaceOnUse" x="2" y="1" width="18" height="18">
<path d="M3.23613 8.61038C3.05193 8.61038 2.87529 8.53721 2.74504 8.40697C2.6148 8.27672 2.54163 8.10007 2.54163 7.91588V2.36125C2.54163 2.17706 2.6148 2.00041 2.74504 1.87016C2.87529 1.73992 3.05193 1.66675 3.23613 1.66675H8.79215C8.97634 1.66675 9.15299 1.73992 9.28324 1.87016C9.41348 2.00041 9.48665 2.17706 9.48665 2.36125V7.91588C9.48665 8.10007 9.41348 8.27672 9.28324 8.40697C9.15299 8.53721 8.97634 8.61038 8.79215 8.61038H3.23613ZM12.9592 8.61038C12.775 8.61038 12.5983 8.53721 12.4681 8.40697C12.3378 8.27672 12.2647 8.10007 12.2647 7.91588V2.36125C12.2647 2.17706 12.3378 2.00041 12.4681 1.87016C12.5983 1.73992 12.775 1.66675 12.9592 1.66675H18.5138C18.698 1.66675 18.8746 1.73992 19.0049 1.87016C19.1351 2.00041 19.2083 2.17706 19.2083 2.36125V7.91588C19.2083 8.10007 19.1351 8.27672 19.0049 8.40697C18.8746 8.53721 18.698 8.61038 18.5138 8.61038H12.9592ZM3.23613 18.3334C3.05193 18.3334 2.87529 18.2602 2.74504 18.13C2.6148 17.9998 2.54163 17.8231 2.54163 17.6389V12.0829C2.54163 11.8987 2.6148 11.7221 2.74504 11.5918C2.87529 11.4616 3.05193 11.3884 3.23613 11.3884H8.79215C8.97634 11.3884 9.15299 11.4616 9.28324 11.5918C9.41348 11.7221 9.48665 11.8987 9.48665 12.0829V17.6389C9.48665 17.8231 9.41348 17.9998 9.28324 18.13C9.15299 18.2602 8.97634 18.3334 8.79215 18.3334H3.23613ZM12.9592 18.3334C12.775 18.3334 12.5983 18.2602 12.4681 18.13C12.3378 17.9998 12.2647 17.8231 12.2647 17.6389V12.0829C12.2647 11.8987 12.3378 11.7221 12.4681 11.5918C12.5983 11.4616 12.775 11.3884 12.9592 11.3884H18.5138C18.698 11.3884 18.8746 11.4616 19.0049 11.5918C19.1351 11.7221 19.2083 11.8987 19.2083 12.0829V17.6389C19.2083 17.8231 19.1351 17.9998 19.0049 18.13C18.8746 18.2602 18.698 18.3334 18.5138 18.3334H12.9592Z" fill="black"/>
</mask>
<g mask="url(#mask0_1481_459)">
<rect x="0.875" y="-0.000976562" width="20" height="20" fill="#D4D6DD"/>
</g>
</svg>
