<svg width="21" height="20" viewBox="0 0 21 20" fill="none" xmlns="http://www.w3.org/2000/svg">
<mask id="mask0_1481_454" style="mask-type:alpha" maskUnits="userSpaceOnUse" x="0" y="0" width="20" height="20">
<path fill-rule="evenodd" clip-rule="evenodd" d="M8.15871 0.416748C3.95517 0.416748 0.541626 3.79724 0.541626 7.97453C0.541626 12.1518 3.95517 15.5323 8.15871 15.5323C9.7259 15.5323 11.1837 15.0623 12.3953 14.2563L17.3646 19.1846C17.9007 19.7164 18.7686 19.7163 19.3047 19.1846C19.8428 18.651 19.8428 17.7843 19.3047 17.2507L14.3673 12.354C15.2539 11.1187 15.7758 9.60672 15.7758 7.97453C15.7758 3.79724 12.3623 0.416748 8.15871 0.416748ZM3.28892 7.97453C3.28892 5.3123 5.46594 3.14828 8.15871 3.14828C10.8515 3.14828 13.0285 5.3123 13.0285 7.97453C13.0285 10.6368 10.8515 12.8008 8.15871 12.8008C5.46594 12.8008 3.28892 10.6368 3.28892 7.97453Z" fill="#0019FF"/>
</mask>
<g mask="url(#mask0_1481_454)">
<rect x="0.125" width="20" height="20" fill="#D4D6DD"/>
</g>
</svg>
