<svg width="21" height="20" viewBox="0 0 21 20" fill="none" xmlns="http://www.w3.org/2000/svg">
<g clip-path="url(#clip0_1481_449)">
<mask id="mask0_1481_449" style="mask-type:alpha" maskUnits="userSpaceOnUse" x="0" y="0" width="21" height="20">
<path d="M11.625 10C11.625 10.6914 11.0664 11.25 10.375 11.25C9.68359 11.25 9.125 10.6914 9.125 10C9.125 9.30859 9.68359 8.75 10.375 8.75C11.0664 8.75 11.625 9.30859 11.625 10ZM0.375 10C0.375 4.47656 4.85156 0 10.375 0C15.8984 0 20.375 4.47656 20.375 10C20.375 15.5234 15.8984 20 10.375 20C4.85156 20 0.375 15.5234 0.375 10ZM13.0742 11.9805L15.2422 6.34375C15.5352 5.55078 14.7891 4.83984 14.0312 5.13281L8.39453 7.30078C8.0625 7.42578 7.80078 7.6875 7.67578 8.01953L5.50781 13.6562C5.21484 14.4141 5.92578 15.1602 6.71875 14.8672L12.3555 12.6992C12.6875 12.5742 12.9492 12.3125 13.0742 11.9805Z" fill="black"/>
</mask>
<g mask="url(#mask0_1481_449)">
<rect x="0.375" y="-0.000976562" width="20" height="20" fill="#0019FF"/>
</g>
</g>
<defs>
<clipPath id="clip0_1481_449">
<rect width="20" height="20" fill="white" transform="translate(0.375)"/>
</clipPath>
</defs>
</svg>
