<svg width="71" height="36" viewBox="0 0 71 36" fill="none" xmlns="http://www.w3.org/2000/svg">
<path d="M6.90801 0C8.00667 0 8.96987 0.158027 9.79763 0.474081C10.6404 0.775083 11.0618 1.18896 11.0618 1.71572C11.0618 2.24247 10.8587 2.89716 10.4523 3.67976C10.061 4.44732 9.72991 4.8311 9.459 4.8311C9.38375 4.8311 9.29345 4.79348 9.1881 4.71823C9.0978 4.62792 8.87205 4.53762 8.51085 4.44732C8.16469 4.34197 7.86369 4.28929 7.60784 4.28929C6.73493 4.28929 6.02758 4.59782 5.48577 5.21488C4.95902 5.83194 4.69564 6.7801 4.69564 8.05936C4.69564 9.32357 4.96654 10.2642 5.50835 10.8813C6.0652 11.4983 6.76503 11.8068 7.60784 11.8068C7.95399 11.8068 8.33777 11.7617 8.75917 11.6714C9.19563 11.566 9.50415 11.4231 9.68476 11.2425C9.71486 11.2124 9.77506 11.1973 9.86536 11.1973C9.95566 11.1973 10.1212 11.3704 10.362 11.7165C10.6179 12.0477 10.8511 12.4916 11.0618 13.0485C11.2725 13.5903 11.3779 14.0117 11.3779 14.3127C11.3779 14.8997 10.9264 15.3662 10.0234 15.7124C9.12038 16.0585 8.05182 16.2316 6.81771 16.2316C4.83109 16.2316 3.19815 15.5318 1.91889 14.1321C0.63963 12.7324 0 10.7609 0 8.21739C0 5.65886 0.65468 3.64966 1.96404 2.1898C3.28845 0.729933 4.93644 0 6.90801 0Z" fill="#0019FF"/>
<path d="M23.7784 15.8252C22.469 15.8252 21.7617 15.6145 21.6563 15.1931L20.9113 12.2809H17.3219L16.6672 15.0803C16.5769 15.5468 15.8545 15.7801 14.5 15.7801C13.7776 15.7801 13.2433 15.7425 12.8972 15.6672C12.551 15.5769 12.3779 15.5092 12.3779 15.464L16.3737 0.180602C16.3737 0.0602007 17.4047 0 19.4665 0C21.5284 0 22.5593 0.0602007 22.5593 0.180602L26.4648 15.4866C26.4648 15.592 26.1187 15.6747 25.4264 15.7349C24.7341 15.7951 24.1848 15.8252 23.7784 15.8252ZM17.8863 9.41387H20.2567L19.2408 4.7408H19.1053L17.8863 9.41387Z" fill="#0019FF"/>
<path d="M28.5259 10.4975C28.8118 10.7232 29.301 11.0318 29.9933 11.4231C30.7006 11.8144 31.3704 12.01 32.0025 12.01C32.6496 12.01 32.9732 11.7617 32.9732 11.265C32.9732 11.0393 32.8829 10.8436 32.7023 10.6781C32.5217 10.4975 32.1906 10.2943 31.709 10.0686C31.2274 9.8428 30.8662 9.66973 30.6254 9.54932C30.3846 9.41387 30.061 9.20317 29.6546 8.91722C29.2633 8.61622 28.9623 8.30769 28.7516 7.99163C28.1496 7.13377 27.8486 6.04264 27.8486 4.71823C27.8486 3.39381 28.3378 2.2801 29.316 1.37709C30.3093 0.45903 31.6036 0 33.1989 0C34.2826 0 35.2834 0.120401 36.2014 0.361205C37.1195 0.586957 37.5936 0.887959 37.6237 1.26421C37.6237 1.30936 37.6237 1.35451 37.6237 1.39967C37.6237 1.92642 37.4581 2.59615 37.127 3.40886C36.7959 4.20652 36.5626 4.6505 36.4272 4.7408C35.464 4.24415 34.5986 3.99582 33.831 3.99582C33.0785 3.99582 32.7023 4.26672 32.7023 4.80853C32.7023 5.13963 32.9807 5.43311 33.5376 5.68896C33.658 5.74916 33.831 5.83194 34.0568 5.93729C34.2825 6.04264 34.5384 6.17057 34.8244 6.32107C35.1254 6.45652 35.4414 6.63712 35.7725 6.86287C36.1187 7.07357 36.4874 7.35953 36.8787 7.72073C37.6764 8.47324 38.0752 9.46655 38.0752 10.7007C38.0752 12.311 37.6312 13.6279 36.7432 14.6513C35.8553 15.6747 34.4857 16.2015 32.6346 16.2316C31.7316 16.2316 30.9113 16.1563 30.1739 16.0058C29.4515 15.8553 28.8194 15.5619 28.2776 15.1254C27.7357 14.689 27.4648 14.1622 27.4648 13.5451C27.4648 12.9281 27.5777 12.3186 27.8035 11.7165C28.0292 11.0995 28.27 10.6931 28.5259 10.4975Z" fill="#0019FF"/>
<path d="M50.4757 15.8252C49.1663 15.8252 48.4589 15.6145 48.3536 15.1931L47.6086 12.2809H44.0192L43.3645 15.0803C43.2742 15.5468 42.5518 15.7801 41.1973 15.7801C40.4749 15.7801 39.9406 15.7425 39.5944 15.6672C39.2483 15.5769 39.0752 15.5092 39.0752 15.464L43.071 0.180602C43.071 0.0602007 44.1019 0 46.1638 0C48.2257 0 49.2566 0.0602007 49.2566 0.180602L53.1621 15.4866C53.1621 15.592 52.816 15.6747 52.1237 15.7349C51.4313 15.7951 50.882 15.8252 50.4757 15.8252ZM44.5835 9.41387H46.9539L45.9381 4.7408H45.8026L44.5835 9.41387Z" fill="#0019FF"/>
<path d="M62.7704 9.07786L65.5005 11.8434C65.9588 12.3097 66.2155 12.9374 66.2155 13.5913C66.2155 14.2451 65.9588 14.8728 65.5005 15.3392C65.0807 15.7669 64.5184 16.0253 63.9204 16.0653C63.3225 16.1053 62.7308 15.9241 62.2577 15.5561L62.1975 15.5063L62.1388 15.5561C61.754 15.8556 61.2884 16.033 60.8019 16.0655L60.6388 16.0712C60.3142 16.0713 59.9928 16.0067 59.6934 15.8811C59.3941 15.7556 59.1227 15.5716 58.8953 15.34C58.4365 14.8733 58.1796 14.245 58.1799 13.5906C58.1802 12.9361 58.4377 12.308 58.8969 11.8418L61.6262 9.07786C61.701 9.00207 61.79 8.94188 61.8882 8.9008C61.9864 8.85972 62.0918 8.83857 62.1983 8.83857C62.3047 8.83857 62.4101 8.85972 62.5083 8.9008C62.6065 8.94188 62.6956 9.00207 62.7704 9.07786ZM69.5017 4.73356C69.9296 5.15338 70.1881 5.7159 70.2281 6.31401C70.2681 6.91212 70.0868 7.50405 69.7186 7.97712L69.6688 8.03577L69.7186 8.09603C70.0181 8.48085 70.1955 8.94648 70.228 9.43299L70.2337 9.59609C70.2338 9.92071 70.1692 10.2421 70.0436 10.5415C69.9181 10.8408 69.7341 11.1121 69.5025 11.3396C69.0358 11.7984 68.4075 12.0553 67.7531 12.055C67.0986 12.0547 66.4705 11.7972 66.0043 11.338L63.2404 8.60864C63.1646 8.53389 63.1044 8.44483 63.0633 8.34662C63.0222 8.24841 63.0011 8.14303 63.0011 8.03658C63.0011 7.93012 63.0222 7.82474 63.0633 7.72653C63.1044 7.62832 63.1646 7.53926 63.2404 7.46451L66.0067 4.73356C66.4731 4.27529 67.1008 4.01852 67.7546 4.01852C68.4084 4.01852 69.0353 4.27529 69.5017 4.73356ZM58.3931 4.73516L61.157 7.46451C61.2328 7.53926 61.293 7.62832 61.3341 7.72653C61.3751 7.82474 61.3963 7.93012 61.3963 8.03658C61.3963 8.14303 61.3751 8.24841 61.3341 8.34662C61.293 8.44483 61.2328 8.53389 61.157 8.60864L58.3899 11.338C57.9235 11.7963 57.2958 12.053 56.642 12.053C55.9881 12.053 55.3604 11.7963 54.8941 11.338C54.4664 10.9182 54.208 10.3559 54.168 9.75793C54.128 9.16 54.3092 8.56824 54.6771 8.09523L54.7269 8.03497L54.6771 7.97632C54.3777 7.5915 54.2003 7.12587 54.1677 6.63936L54.1621 6.47626C54.1621 5.82064 54.4256 5.19233 54.8933 4.73275C55.36 4.27398 55.9883 4.01703 56.6427 4.01733C57.2971 4.01763 57.9252 4.27516 58.3915 4.73436M63.757 0.00118353C64.0816 0.00108019 64.403 0.065686 64.7024 0.191225C65.0017 0.316763 65.2731 0.500716 65.5005 0.732331C65.9593 1.19903 66.2162 1.82736 66.2159 2.48179C66.2156 3.13622 65.9581 3.76431 65.4989 4.23059L62.7695 6.99449C62.6948 7.07028 62.6057 7.13047 62.5075 7.17154C62.4093 7.21262 62.3039 7.23378 62.1975 7.23378C62.091 7.23378 61.9856 7.21262 61.8874 7.17154C61.7892 7.13047 61.7002 7.07028 61.6254 6.99449L58.8961 4.22738C58.4378 3.761 58.181 3.1333 58.181 2.47945C58.181 1.82561 58.4378 1.19791 58.8961 0.731528C59.3159 0.303866 59.8782 0.0454504 60.4761 0.0054505C61.0741 -0.0345494 61.6658 0.146658 62.1388 0.514594L62.1975 0.564408L62.2577 0.514594C62.6426 0.215156 63.1082 0.0377456 63.5947 0.0052009L63.757 0.00118353Z" fill="#0019FF"/>
<path d="M66.6622 35.2824C65.3528 35.2824 64.6455 35.0717 64.5401 34.6503L63.7951 31.7381H60.2057L59.551 34.5374C59.4607 35.004 58.7383 35.2372 57.3838 35.2372C56.6614 35.2372 56.1271 35.1996 55.7809 35.1244C55.4348 35.0341 55.2617 34.9663 55.2617 34.9212L59.2575 19.6378C59.2575 19.5174 60.2885 19.4572 62.3503 19.4572C64.4122 19.4572 65.4431 19.5174 65.4431 19.6378L69.3486 34.9438C69.3486 35.0491 69.0025 35.1319 68.3102 35.1921C67.6179 35.2523 67.0685 35.2824 66.6622 35.2824ZM60.7701 28.871H63.1405L62.1246 24.198H61.9891L60.7701 28.871Z" fill="#0019FF"/>
<path d="M43.3892 29.7291C43.6751 29.9548 44.1642 30.2633 44.8565 30.6546C45.5639 31.0459 46.2336 31.2416 46.8657 31.2416C47.5129 31.2416 47.8365 30.9933 47.8365 30.4966C47.8365 30.2709 47.7462 30.0752 47.5656 29.9097C47.385 29.7291 47.0539 29.5259 46.5723 29.3001C46.0907 29.0744 45.7295 28.9013 45.4887 28.7809C45.2478 28.6454 44.9243 28.4347 44.5179 28.1488C44.1266 27.8478 43.8256 27.5393 43.6149 27.2232C43.0129 26.3653 42.7119 25.2742 42.7119 23.9498C42.7119 22.6254 43.201 21.5117 44.1793 20.6087C45.1726 19.6906 46.4669 19.2316 48.0622 19.2316C49.1458 19.2316 50.1467 19.352 51.0647 19.5928C51.9828 19.8185 52.4569 20.1195 52.487 20.4958C52.487 20.5409 52.487 20.5861 52.487 20.6312C52.487 21.158 52.3214 21.8277 51.9903 22.6404C51.6592 23.4381 51.4259 23.8821 51.2905 23.9724C50.3273 23.4757 49.4619 23.2274 48.6943 23.2274C47.9418 23.2274 47.5656 23.4983 47.5656 24.0401C47.5656 24.3712 47.844 24.6647 48.4009 24.9205C48.5213 24.9807 48.6943 25.0635 48.9201 25.1689C49.1458 25.2742 49.4017 25.4021 49.6876 25.5526C49.9886 25.6881 50.3047 25.8687 50.6358 26.0944C50.9819 26.3051 51.3507 26.5911 51.742 26.9523C52.5396 27.7048 52.9385 28.6981 52.9385 29.9322C52.9385 31.5426 52.4945 32.8595 51.6065 33.8829C50.7186 34.9063 49.349 35.4331 47.4978 35.4632C46.5948 35.4632 45.7746 35.3879 45.0371 35.2374C44.3147 35.0869 43.6826 34.7934 43.1408 34.357C42.599 33.9205 42.3281 33.3938 42.3281 32.7767C42.3281 32.1597 42.441 31.5501 42.6668 30.9481C42.8925 30.3311 43.1333 29.9247 43.3892 29.7291Z" fill="#0019FF"/>
<path d="M32.2962 34.9211C32.2962 35.1619 31.5814 35.2823 30.1516 35.2823C28.7068 35.2823 27.9844 35.1694 27.9844 34.9436V20.2246C27.9844 19.6978 28.2628 19.4344 28.8197 19.4344H33.1315C37.0897 19.4344 39.0688 20.9771 39.0688 24.0624C39.0688 24.9955 38.8882 25.8458 38.527 26.6134C38.1658 27.3659 37.6541 27.9679 36.9919 28.4194L39.8364 33.1602C39.7159 33.5214 39.3246 33.9353 38.6624 34.4018C37.7594 35.049 37.0145 35.3726 36.4275 35.3726C35.8405 35.3726 35.4041 35.1619 35.1181 34.7405L32.9961 29.7965H32.2962V34.9211ZM32.2962 23.4303V26.8166H32.4091C33.8389 26.8166 34.5538 26.2221 34.5538 25.0331C34.5538 24.4913 34.4108 24.0925 34.1248 23.8366C33.8539 23.5657 33.4024 23.4303 32.7703 23.4303H32.2962Z" fill="#0019FF"/>
<path d="M18.4444 35.4632C16.3374 35.4632 14.6142 34.7709 13.2747 33.3862C11.9503 32.0016 11.2881 29.9849 11.2881 27.3361C11.2881 24.6722 11.9578 22.6555 13.2973 21.2859C14.6518 19.9164 16.3901 19.2316 18.5121 19.2316C20.6493 19.2316 22.3725 19.9088 23.6819 21.2633C24.9912 22.6028 25.6459 24.6421 25.6459 27.3812C25.6459 30.1053 24.9762 32.1371 23.6367 33.4765C22.2973 34.801 20.5665 35.4632 18.4444 35.4632ZM18.467 23.566C17.7446 23.566 17.1351 23.8971 16.6384 24.5593C16.1568 25.2215 15.916 26.1546 15.916 27.3587C15.916 28.5476 16.1493 29.4657 16.6158 30.1128C17.0824 30.7449 17.6919 31.061 18.4444 31.061C19.212 31.061 19.829 30.7374 20.2956 30.0903C20.7772 29.4431 21.018 28.5175 21.018 27.3135C21.018 26.1095 20.7697 25.1839 20.273 24.5367C19.7914 23.8896 19.1894 23.566 18.467 23.566Z" fill="#0019FF"/>
<path d="M8.556 19.4344C8.81185 19.4344 8.93977 20.1042 8.93977 21.4436C8.93977 22.7681 8.81185 23.4303 8.556 23.4303H4.42474V26.0038H7.17891C7.43476 26.0038 7.56269 26.5908 7.56269 27.7647C7.56269 28.9236 7.44229 29.503 7.20148 29.503H4.42474V34.9436C4.42474 35.1543 4.13878 35.2898 3.56688 35.35C3.01003 35.4252 2.54347 35.4629 2.16722 35.4629L1.10618 35.4177C0.368728 35.3274 0 35.1769 0 34.9662V20.0214C0 19.7806 0.0451504 19.6226 0.135451 19.5473C0.240802 19.4721 0.391303 19.4344 0.586955 19.4344H8.556Z" fill="#0019FF"/>
</svg>
