<svg width="20" height="20" viewBox="0 0 20 20" fill="none" xmlns="http://www.w3.org/2000/svg">
<mask id="mask0_1481_1270" style="mask-type:alpha" maskUnits="userSpaceOnUse" x="0" y="0" width="20" height="20">
<path fill-rule="evenodd" clip-rule="evenodd" d="M8.03371 0.416626C3.83017 0.416626 0.416626 3.79712 0.416626 7.97441C0.416626 12.1517 3.83017 15.5322 8.03371 15.5322C9.6009 15.5322 11.0587 15.0622 12.2703 14.2562L17.2396 19.1845C17.7757 19.7162 18.6436 19.7162 19.1797 19.1845C19.7178 18.6508 19.7178 17.7842 19.1797 17.2506L14.2423 12.3539C15.1289 11.1185 15.6508 9.6066 15.6508 7.97441C15.6508 3.79712 12.2373 0.416626 8.03371 0.416626ZM3.16392 7.97441C3.16392 5.31218 5.34094 3.14815 8.03371 3.14815C10.7265 3.14815 12.9035 5.31218 12.9035 7.97441C12.9035 10.6366 10.7265 12.8007 8.03371 12.8007C5.34094 12.8007 3.16392 10.6366 3.16392 7.97441Z" fill="#0019FF"/>
</mask>
<g mask="url(#mask0_1481_1270)">
<rect width="20" height="20" fill="#2F3036"/>
</g>
</svg>
